# xmcd
#
# Track frame offsets:
# 150
# 20882
# 41614
# 54928
# 70818
# 84655
# 109140
# 125691
# 136944
# 147298
# 157349
# 167717
# 181533
# 194310
# 216697
# 236615
# 249834
#
# Disc length: 3498 seconds
#
#
# Revision: 0
# Processed by: cddbd v1.4PL0 Copyright (c) Steve Scherf et al.
# Submitted via: FreeRIP 2.35 
#
DISCID=f80da811
DTITLE=Peter Posa - Peter Posa My Pick
DYEAR=2003
DGENRE=Country
TTITLE0=La Cucaracha (Trad)
TTITLE1=Dreaming My Dreams With You (Reynolds)
TTITLE2=Amigo's Guitar (Bodkin)
TTITLE3=Maggie (Campbell/Cassidy)
TTITLE4=Oklahoma (Posa/Wallace)
TTITLE5=Hank Williams Medley a Mansion On The Hil  b Take These Chanins From My Heart c Cold, Cold Heart d I Can't Help It l
TTITLE6=Dark Moon (Miller)
TTITLE7=Mind Your Own Business (Williams)
TTITLE8=Yellow Bandana (Gorgoni)
TTITLE9=Mexico (Bryant)
TTITLE10=Anita, You're Dreaming (Bowman/Jennings)
TTITLE11=Blue Eyes Crying  In The Rain (Rose)
TTITLE12=Help Me Make It Through The Night (Kristofferson)
TTITLE13=I Can't Stop Loving You (Gibson)
TTITLE14=It's Not Supposed To Be That Way (Nelson)
TTITLE15=Six Days On The Road (Green/Montgomery)
TTITLE16=Country Medley a Oh Lonesome Me b Blue Blue Day c I'll Walk The Line
EXTD=
EXTT0=
EXTT1=
EXTT2=
EXTT3=
EXTT4=
EXTT5=
EXTT6=
EXTT7=
EXTT8=
EXTT9=
EXTT10=
EXTT11=
EXTT12=
EXTT13=
EXTT14=
EXTT15=
EXTT16=
PLAYORDER=
